#!OML:ASF H:\Not Pregnant\Project 1\Capture day 1\Session 1\non-pregnant.ASF
:FULLY-SPECIFIED
:DEGREES
933
root 7.17243 16.0864 17.0897 -169.628 -186.871 -188.829
lowerback 5.91067 2.18724 10.2628
upperback -8.57646 4.32406 0.882317
thorax -12.0708 1.20054 -5.44262
lowerneck 13.8978 -13.0121 -29.3386
upperneck -15.5371 -20.5974 48.2798
head 3.82009 -12.9434 24.4098
rclavicle 1.89094e-014 3.43897e-014
rhumerus -23.0319 -6.12505 -76.274
rradius 38.7597
rwrist 13.3686
rhand -14.7151 -5.36748
rfingers 7.12502
rthumb -168.56 144.965
lclavicle 1.89094e-014 3.43897e-014
lhumerus -44.1397 -6.6559 89.4621
lradius 74.0623
lwrist 42.6565
lhand -15.4851 -18.481
lfingers 7.12502
lthumb 10.6968 11.2267
rfemur -11.1921 -2.00969 35.93
rtibia 14.9841
rfoot -11.1595 19.0888
rtoes -4.11522
lfemur -47.7327 34.2027 2.03921
ltibia 135.315
lfoot -25.6094 -15.0735
ltoes -31.313
934
root 7.18546 16.0518 17.1851 -169.908 -186.106 -189.188
lowerback 6.24262 2.35472 10.4959
upperback -8.41373 4.61618 0.96509
thorax -12.0311 1.33004 -5.53717
lowerneck 13.8481 -12.9825 -29.28
upperneck -15.6265 -20.5187 48.4286
head 3.80486 -12.924 24.559
rclavicle -7.88927e-015 -2.48481e-014
rhumerus -22.9904 -6.10644 -76.7572
rradius 38.2776
rwrist 13.7188
rhand -14.2143 -5.22695
rfingers 7.12502
rthumb -168.078 145.133
lclavicle -7.88927e-015 -2.48481e-014
lhumerus -44.5768 -6.50186 89.3395
lradius 73.8623
lwrist 42.5414
lhand -15.3265 -18.6317
lfingers 7.12502
lthumb 10.8499 11.068
rfemur -10.7247 -1.76647 36.2306
rtibia 15.562
rfoot -11.5985 19.4069
rtoes -3.5525
lfemur -50.3288 32.8692 -0.414388
ltibia 134.03
lfoot -25.1969 -13.7219
ltoes -32.0241
935
root 7.19854 16.0168 17.2829 -170.175 -185.336 -189.478
lowerback 6.55829 2.52039 10.6626
upperback -8.24861 4.89452 1.03119
thorax -11.9811 1.45893 -5.61124
lowerneck 13.7952 -12.9522 -29.2213
upperneck -15.7021 -20.4415 48.5696
head 3.79233 -12.9038 24.7026
rclavicle 2.39163e-014 2.98177e-015
rhumerus -22.9737 -6.11051 -77.2365
rradius 37.7816
rwrist 14.1119
rhand -13.6781 -5.02345
rfingers 7.12502
rthumb -167.56 145.367
lclavicle 2.39163e-014 2.98177e-015
lhumerus -44.9969 -6.34747 89.21
lradius 73.4968
lwrist 42.4021
lhand -15.1583 -18.7782
lfingers 7.12502
lthumb 11.0121 10.9129
rfemur -10.2988 -1.50208 36.4539
rtibia 16.243
rfoot -12.1025 19.6913
rtoes -3.13089
lfemur -52.7169 31.2087 -2.75866
ltibia 132.48
lfoot -24.702 -12.2256
ltoes -32.6274
936
root 7.21132 15.9814 17.3823 -170.423 -184.57 -189.696
lowerback 6.86418 2.68208 10.7563
upperback -8.08861 5.15607 1.07857
thorax -11.935 1.58496 -5.66381
lowerneck 13.7491 -12.9156 -29.1628
upperneck -15.7657 -20.3594 48.7049
head 3.77769 -12.8811 24.8483
rclavicle 4.1869e-015 -1.78906e-014
rhumerus -22.9909 -6.14549 -77.7073
rradius 37.2748
rwrist 14.5508
rhand -13.0848 -4.75721
rfingers 7.12502
rthumb -166.989 145.669
lclavicle 4.1869e-015 -1.78906e-014
lhumerus -45.4038 -6.19278 89.0732
lradius 72.9671
lwrist 42.267
lhand -14.9764 -18.8937
lfingers 7.12502
lthumb 11.1875 10.788
rfemur -9.91183 -1.20077 36.597
rtibia 16.9993
rfoot -12.6549 19.9238
rtoes -2.87419
lfemur -54.8495 29.3559 -4.9008
ltibia 130.684
lfoot -24.1648 -10.5969
ltoes -33.1383
937
root 7.22393 15.9461 17.4838 -170.645 -183.821 -189.845
lowerback 7.14306 2.83972 10.7871
upperback -7.93405 5.39912 1.10733
thorax -11.8833 1.70705 -5.69862
lowerneck 13.7032 -12.8798 -29.1039
upperneck -15.8194 -20.2808 48.8338
head 3.76516 -12.8592 24.9884
rclavicle 4.54347e-014 -4.96962e-015
rhumerus -23.0398 -6.22718 -78.1619
rradius 36.7621
rwrist 15.045
rhand -12.3935 -4.45075
rfingers 7.12502
rthumb -166.322 146.019
lclavicle 4.54347e-014 -4.96962e-015
lhumerus -45.7753 -6.04128 88.932
lradius 72.2617
lwrist 42.1668
lhand -14.787 -18.9675
lfingers 7.12502
lthumb 11.3702 10.7042
rfemur -9.56307 -0.874972 36.6659
rtibia 17.8093
rfoot -13.2529 20.1096
rtoes -2.79711
lfemur -56.726 27.4165 -6.80871
ltibia 128.656
lfoot -23.5912 -8.84181
ltoes -33.502
938
root 7.23625 15.9111 17.5871 -170.828 -183.084 -189.933
lowerback 7.38579 2.99659 10.7571
upperback -7.79114 5.62747 1.11946
thorax -11.8275 1.82659 -5.7146
lowerneck 13.6585 -12.8431 -29.0487
upperneck -15.8625 -20.2052 48.9582
head 3.75598 -12.8381 25.1268
rclavicle 1.02374e-014 1.78906e-014
rhumerus -23.1202 -6.35668 -78.5968
rradius 36.2428
rwrist 15.5908
rhand -11.6023 -4.09435
rfingers 7.12502
rthumb -165.56 146.428
lclavicle 1.02374e-014 1.78906e-014
lhumerus -46.1183 -5.88934 88.7868
lradius 71.3908
lwrist 42.1151
lhand -14.5912 -18.9825
lfingers 7.12502
lthumb 11.559 10.6788
rfemur -9.26036 -0.509291 36.6685
rtibia 18.6497
rfoot -13.8749 20.2479
rtoes -2.86554
lfemur -58.3696 25.5026 -8.47209
ltibia 126.407
lfoot -23.0158 -7.02285
ltoes -33.8037
939
root 7.2481 15.8768 17.6921 -170.964 -182.364 -189.967
lowerback 7.58731 3.15261 10.6723
upperback -7.66692 5.84163 1.11615
thorax -11.7732 1.94276 -5.7134
lowerneck 13.62 -12.8068 -28.9957
upperneck -15.8966 -20.1349 49.0776
head 3.74918 -12.8195 25.2617
rclavicle 1.37534e-014 1.15295e-014
rhumerus -23.2336 -6.54206 -79.009
rradius 35.7111
rwrist 16.1909
rhand -10.7315 -3.68421
rfingers 7.12502
rthumb -164.721 146.9
lclavicle 1.37534e-014 1.15295e-014
lhumerus -46.4323 -5.73567 88.6375
lradius 70.3505
lwrist 42.118
lhand -14.4176 -18.9238
lfingers 7.12502
lthumb 11.7264 10.728
rfemur -9.00732 -0.103666 36.6149
rtibia 19.5004
rfoot -14.5005 20.3422
rtoes -3.02449
lfemur -59.807 23.6789 -9.90862
ltibia 123.944
lfoot -22.4518 -5.16458
ltoes -34.1132
940
root 7.25989 15.844 17.7995 -171.051 -181.665 -189.954
lowerback 7.72682 3.30469 10.5427
upperback -7.55555 6.03541 1.09926
thorax -11.7018 2.05332 -5.69526
lowerneck 13.5629 -12.7777 -28.9429
upperneck -15.9032 -20.0786 49.1853
head 3.75668 -12.804 25.3759
rclavicle -3.13459e-014 -3.22031e-014
rhumerus -23.3634 -6.75655 -79.4068
rradius 35.1591
rwrist 16.8235
rhand -9.81014 -3.23569
rfingers 7.12502
rthumb -163.834 147.418
lclavicle -3.13459e-014 -3.22031e-014
lhumerus -46.7073 -5.57041 88.4805
lradius 69.1444
lwrist 42.1707
lhand -14.2605 -18.7812
lfingers 7.12502
lthumb 11.8779 10.8619
rfemur -8.79418 0.332431 36.5097
rtibia 20.3374
rfoot -15.1172 20.4054
rtoes -3.19842
lfemur -61.04 21.9716 -11.1407
ltibia 121.261
lfoot -21.8804 -3.33484
ltoes -34.3339
941
root 7.27151 15.8128 17.9097 -171.078 -180.995 -189.9
lowerback 7.79492 3.45513 10.3792
upperback -7.46122 6.21264 1.06842
thorax -11.6112 2.15918 -5.66591
lowerneck 13.5024 -12.7542 -28.8912
upperneck -15.9075 -20.0316 49.2907
head 3.76943 -12.7924 25.4831
rclavicle 9.16894e-015 2.56432e-014
rhumerus -23.5227 -7.02128 -79.7808
rradius 34.6038
rwrist 17.5028
rhand -8.85605 -2.75975
rfingers 7.12502
rthumb -162.915 147.971
lclavicle 9.16894e-015 2.56432e-014
lhumerus -46.9375 -5.39564 88.3194
lradius 67.7632
lwrist 42.2698
lhand -14.1434 -18.559
lfingers 7.12502
lthumb 11.9908 11.0775
rfemur -8.62148 0.780503 36.3611
rtibia 21.1387
rfoot -15.7036 20.4566
rtoes -3.31292
lfemur -62.0829 20.3931 -12.1875
ltibia 118.36
lfoot -21.3194 -1.59588
ltoes -34.4846
942
root 7.28301 15.7826 18.0225 -171.05 -180.368 -189.828
lowerback 7.79932 3.59809 10.2055
upperback -7.38866 6.37105 1.0287
thorax -11.511 2.25666 -5.6331
lowerneck 13.4435 -12.7352 -28.8379
upperneck -15.9036 -19.9931 49.3876
head 3.78521 -12.784 25.5778
rclavicle -2.20154e-014 -2.78299e-015
rhumerus -23.7178 -7.32151 -80.1326
rradius 34.0462
rwrist 18.2134
rhand -7.8676 -2.30577
rfingers 7.12502
rthumb -161.964 148.511
lclavicle -2.20154e-014 -2.78299e-015
lhumerus -47.1301 -5.21374 88.1539
lradius 66.2129
lwrist 42.4296
lhand -14.0766 -18.2414
lfingers 7.12502
lthumb 12.0552 11.3914
rfemur -8.4686 1.22698 36.1948
rtibia 21.8783
rfoot -16.2745 20.4692
rtoes -3.48754
lfemur -62.9529 18.9413 -13.0519
ltibia 115.252
lfoot -20.7729 -0.0148368
ltoes -34.5313
943
root 7.29452 15.7547 18.1384 -170.966 -179.791 -189.739
lowerback 7.73086 3.73288 10.0321
upperback -7.33441 6.5098 0.978845
thorax -11.3907 2.34528 -5.60229
lowerneck 13.3894 -12.7238 -28.7805
upperneck -15.9022 -19.9648 49.4773
head 3.80121 -12.7803 25.6585
rclavicle -1.6524e-015 -1.61016e-014
rhumerus -23.9456 -7.6717 -80.4593
rradius 33.486
rwrist 18.9658
rhand -6.86373 -1.87451
rfingers 7.12502
rthumb -160.998 149.034
lclavicle -1.6524e-015 -1.61016e-014
lhumerus -47.2739 -5.02482 87.9827
lradius 64.4861
lwrist 42.6435
lhand -14.0499 -17.8424
lfingers 7.12502
lthumb 12.081 11.7888
rfemur -8.33249 1.64991 36.0116
rtibia 22.5384
rfoot -16.7895 20.4794
rtoes -3.62289
lfemur -63.639 17.5983 -13.7558
ltibia 111.927
lfoot -20.228 1.39854
ltoes -34.4881
